<?xml version="1.0" encoding="iso-8859-1"?>
<!-- Uploaded to: SVG Repo, www.svgrepo.com, Generator: SVG Repo Mixer Tools -->
<svg version="1.1" id="Layer_1" xmlns="http://www.w3.org/2000/svg" xmlns:xlink="http://www.w3.org/1999/xlink" 
	 viewBox="0 0 512 512" xml:space="preserve">
<rect x="37.088" y="257.923" style="fill:#F7B239;" width="437.817" height="245.088"/>
<rect x="38.883" y="259.999" style="fill:#E09B2D;" width="28.789" height="243.001"/>
<path style="fill:#F95428;" d="M360.832,44.98c-28.494,0-54.447,11.07-73.799,29.131c2.954-6.335,6.263-12.346,9.954-17.928
	c16.28-24.628,37.567-38.19,59.939-38.19c4.968,0,8.997-4.028,8.997-8.996S361.895,0,356.926,0
	c-28.611,0-55.229,16.429-74.949,46.259c-8.64,13.069-15.488,28.086-20.409,44.358c-4.921-16.273-11.769-31.289-20.409-44.358
	C221.439,16.429,194.821,0,166.21,0c-4.968,0-8.997,4.028-8.997,8.996s4.028,8.996,8.997,8.996
	c22.372,0,43.659,13.562,59.939,38.188c3.691,5.583,6.998,11.595,9.954,17.928c-19.351-18.059-45.304-29.131-73.798-29.131
	c-32.327,0-58.628,26.301-58.628,58.628s26.301,58.628,58.628,58.628h99.263h99.264c32.327,0,58.628-26.301,58.628-58.628
	S393.159,44.98,360.832,44.98z M162.306,144.244c-22.406,0-40.635-18.229-40.635-40.635s18.229-40.635,40.635-40.635
	c46.739,0,85.294,35.704,89.822,81.271H162.306z M360.832,144.244H271.01c4.528-45.567,43.084-81.271,89.822-81.271
	c22.406,0,40.635,18.229,40.635,40.635S383.238,144.244,360.832,144.244z"/>
<rect x="17.292" y="153.24" style="fill:#F7B239;" width="477.414" height="104.671"/>
<g>
	<rect x="37.088" y="257.923" style="fill:#E09B2D;" width="437.817" height="26.39"/>
	<rect x="17.292" y="153.24" style="fill:#E09B2D;" width="43.219" height="104.671"/>
</g>
<g>
	<path style="fill:#F95428;" d="M128.291,394.027h-18.774c-11.777,0-21.553-8.737-23.183-20.071
		c-14.665-11.019-22.883-28.881-21.589-47.332c1.919-27.378,24.939-49.505,52.406-50.373c14.85-0.469,28.885,4.953,39.533,15.27
		c10.652,10.321,16.519,24.171,16.519,38.999c0,17.174-8.068,33.196-21.727,43.439C149.841,385.291,140.068,394.027,128.291,394.027
		z M118.908,294.215c-0.396,0-0.792,0.006-1.19,0.019c-18.359,0.581-33.744,15.361-35.026,33.648
		c-0.927,13.226,5.087,25.506,16.089,32.85c3.324,2.219,5.306,5.909,5.306,9.871c0,2.994,2.436,5.429,5.429,5.429h18.774
		c2.994,0,5.429-2.435,5.429-5.429c0-3.963,1.983-7.653,5.304-9.871c10.134-6.764,16.183-18.06,16.183-30.214
		c0-9.914-3.922-19.174-11.045-26.077C137.328,297.822,128.4,294.215,118.908,294.215z"/>
	<path style="fill:#F95428;" d="M402.482,394.027h-18.774c-11.777,0-21.553-8.737-23.183-20.071
		c-14.665-11.019-22.885-28.881-21.59-47.332c1.92-27.378,24.939-49.505,52.406-50.373c14.845-0.465,28.885,4.953,39.533,15.27
		c10.652,10.321,16.519,24.171,16.519,38.999c0,17.174-8.068,33.196-21.727,43.439C424.034,385.291,414.259,394.027,402.482,394.027
		z M393.099,294.215c-0.396,0-0.792,0.006-1.19,0.019c-18.359,0.581-33.744,15.361-35.026,33.649
		c-0.927,13.225,5.087,25.506,16.089,32.85c3.324,2.219,5.306,5.909,5.306,9.871c0,2.994,2.436,5.429,5.429,5.429h18.774
		c2.994,0,5.429-2.435,5.429-5.429c0-3.963,1.983-7.653,5.304-9.871c10.134-6.764,16.183-18.06,16.183-30.214
		c0-9.914-3.922-19.176-11.045-26.077C411.519,297.822,402.591,294.215,393.099,294.215z"/>
	<circle style="fill:#F95428;" cx="405.597" cy="343.99" r="8.996"/>
	<circle style="fill:#F95428;" cx="380.599" cy="343.99" r="8.996"/>
	<circle style="fill:#F95428;" cx="131.408" cy="343.99" r="8.996"/>
	<circle style="fill:#F95428;" cx="106.41" cy="343.99" r="8.996"/>
	<path style="fill:#F95428;" d="M265.386,485.382h-18.774c-11.777,0-21.553-8.737-23.183-20.071
		c-14.665-11.018-22.883-28.881-21.59-47.331c1.92-27.378,24.939-49.506,52.406-50.374c14.845-0.462,28.885,4.953,39.533,15.27
		c10.652,10.321,16.519,24.171,16.519,38.999c0,17.174-8.068,33.196-21.727,43.439C286.937,476.645,277.163,485.382,265.386,485.382
		z M256.004,385.57c-0.396,0-0.792,0.006-1.19,0.019c-18.359,0.581-33.744,15.361-35.026,33.649
		c-0.926,13.225,5.088,25.506,16.089,32.85c3.324,2.219,5.306,5.909,5.306,9.871c0,2.994,2.436,5.429,5.429,5.429h18.774
		c2.994,0,5.429-2.435,5.429-5.429c0-3.961,1.982-7.649,5.301-9.869c10.137-6.767,16.186-18.061,16.186-30.216
		c0-9.914-3.922-19.176-11.045-26.077C274.424,389.176,265.496,385.57,256.004,385.57z"/>
	<circle style="fill:#F95428;" cx="268.503" cy="435.346" r="8.996"/>
	<circle style="fill:#F95428;" cx="243.505" cy="435.346" r="8.996"/>
	<path style="fill:#F95428;" d="M341.515,217.743h-18.773c-6.268,0-12.152-2.445-16.572-6.883
		c-3.615-3.599-5.909-8.202-6.619-13.197c-14.021-10.514-22.087-26.981-21.692-44.619c0.11-4.967,4.233-8.934,9.196-8.794
		c4.967,0.11,8.904,4.227,8.794,9.196c-0.277,12.458,5.767,24.049,16.17,31.006c3.32,2.231,5.292,5.915,5.292,9.866
		c0,1.447,0.563,2.802,1.585,3.821c1.046,1.051,2.403,1.613,3.848,1.613h18.773c2.996,0,5.434-2.437,5.434-5.434
		c0-3.978,1.995-7.675,5.336-9.888c10.101-6.744,16.148-18.041,16.148-30.201c0-0.22,0.002-0.431-0.006-0.643
		c-0.188-4.965,3.684-9.143,8.649-9.331c4.956-0.178,9.143,3.684,9.331,8.649c0.017,0.437,0.019,0.873,0.019,1.325
		c0,17.178-8.068,33.204-21.724,43.446C363.068,209.007,353.292,217.743,341.515,217.743z M362.286,199.385
		c-0.013,0.008-0.025,0.017-0.038,0.025C362.261,199.402,362.274,199.393,362.286,199.385z"/>
	<circle style="fill:#F95428;" cx="344.637" cy="167.707" r="8.996"/>
	<circle style="fill:#F95428;" cx="319.639" cy="167.707" r="8.996"/>
	<path style="fill:#F95428;" d="M206.89,266.912c-4.968,0-8.997-4.028-8.997-8.996v-0.312c0-9.915-3.92-19.175-11.039-26.074
		c-7.118-6.899-16.508-10.529-26.453-10.216c-18.355,0.583-33.739,15.366-35.017,33.655c-0.066,0.94-0.098,1.904-0.098,2.947
		c0,4.968-4.028,8.996-8.996,8.996s-8.996-4.028-8.996-8.996c0-1.469,0.047-2.844,0.143-4.206
		c1.913-27.377,24.93-49.508,52.399-50.38c14.869-0.467,28.897,4.962,39.543,15.28c10.646,10.318,16.509,24.167,16.509,38.994v0.312
		C215.886,262.884,211.858,266.912,206.89,266.912z"/>
</g>
<path style="fill:#333333;" d="M494.707,144.244H17.293c-4.968,0-8.996,4.028-8.996,8.996v104.674c0,4.968,4.028,8.996,8.996,8.996
	h10.799v236.093c0,4.968,4.028,8.996,8.996,8.996h437.822c4.968,0,8.996-4.028,8.996-8.996V266.91h10.799
	c4.968,0,8.996-4.028,8.996-8.996V153.24C503.703,148.272,499.675,144.244,494.707,144.244z M465.913,494.007H46.084V266.91h419.829
	V494.007z M485.71,248.917h-10.799H37.088H26.288v-86.681h459.421v86.681H485.71z"/>
<g>
	<circle style="fill:#F95428;" cx="265.168" cy="226.712" r="8.996"/>
	<circle style="fill:#F95428;" cx="49.264" cy="185.328" r="8.996"/>
	<circle style="fill:#F95428;" cx="439.688" cy="188.926" r="8.996"/>
	<circle style="fill:#F95428;" cx="369.563" cy="446.022" r="8.996"/>
	<circle style="fill:#F95428;" cx="234.628" cy="317.06" r="8.996"/>
	<circle style="fill:#F95428;" cx="79.852" cy="471.392" r="8.996"/>
</g>
</svg>